<svg version="1.0" xmlns="http://www.w3.org/2000/svg"
 width="187.000000pt" height="187.000000pt" viewBox="0 0 187.000000 187.000000"
 preserveAspectRatio="xMidYMid meet">

<g transform="translate(0.000000,187.000000) scale(0.100000,-0.100000)"
fill="#000000" stroke="none">
<path d="M572 1813 c2 -10 11 -18 21 -17 9 0 35 1 57 2 28 2 40 6 40 17 0 12
-13 15 -61 15 -52 0 -60 -2 -57 -17z"/>
<path d="M530 1770 c0 -13 -7 -20 -20 -20 -17 0 -20 -7 -20 -41 0 -33 3 -40
18 -37 12 2 18 14 20 41 3 29 7 37 23 37 12 0 19 7 19 20 0 13 -7 20 -20 20
-13 0 -20 -7 -20 -20z"/>
<path d="M700 1773 c0 -16 8 -18 60 -15 43 3 60 8 60 18 0 10 -15 14 -60 14
-50 0 -60 -3 -60 -17z"/>
<path d="M915 1779 c-10 -16 -2 -20 58 -26 43 -4 56 -10 60 -24 7 -26 37 -24
37 1 0 13 -7 20 -20 20 -13 0 -20 7 -20 20 0 18 -7 20 -54 20 -30 0 -58 -5
-61 -11z"/>
<path d="M822 1733 c2 -14 13 -18 43 -18 30 0 41 4 43 18 3 14 -4 17 -43 17
-39 0 -46 -3 -43 -17z"/>
<path d="M1080 1646 c0 -59 2 -66 20 -66 13 0 20 -7 20 -20 0 -13 7 -20 20
-20 17 0 20 -7 20 -41 0 -32 4 -42 19 -46 11 -3 21 -13 24 -24 7 -25 37 -25
37 1 0 13 -7 20 -20 20 -17 0 -20 7 -20 41 0 32 -4 42 -20 46 -11 3 -20 14
-20 24 0 12 -7 19 -20 19 -19 0 -25 18 -32 94 -2 16 -9 31 -15 34 -10 3 -13
-14 -13 -62z"/>
<path d="M450 1640 c0 -24 25 -27 34 -4 9 23 8 24 -14 24 -13 0 -20 -7 -20
-20z"/>
<path d="M407 1613 c-4 -3 -7 -21 -7 -40 0 -26 4 -33 20 -33 17 0 20 7 20 40
0 38 -14 52 -33 33z"/>
<path d="M698 1528 c-2 -15 -11 -24 -25 -26 -19 -3 -23 -10 -23 -41 0 -37 2
-39 38 -45 20 -3 58 -6 84 -6 41 0 47 3 50 23 2 14 11 23 26 25 14 2 22 10 22
23 0 15 -7 19 -34 19 -58 0 -94 11 -99 31 -7 26 -35 24 -39 -3z"/>
<path d="M367 1533 c-4 -3 -7 -42 -7 -85 0 -71 2 -78 20 -78 13 0 20 7 20 20
0 13 7 20 20 20 17 0 20 7 20 50 0 43 -3 50 -20 50 -11 0 -20 7 -20 15 0 15
-21 21 -33 8z"/>
<path d="M1250 1390 c0 -13 7 -20 20 -20 13 0 20 -7 20 -20 0 -13 7 -20 20
-20 25 0 26 27 1 35 -10 3 -21 15 -24 25 -7 26 -37 26 -37 0z"/>
<path d="M333 1363 c-18 -6 -16 -33 1 -33 19 0 31 19 20 30 -5 4 -15 5 -21 3z"/>
<path d="M275 1301 c-3 -10 -15 -21 -26 -24 -18 -5 -20 -12 -17 -79 2 -60 6
-73 21 -76 12 -2 17 3 17 17 0 14 6 21 20 21 27 0 27 -36 0 -43 -13 -3 -18
-11 -14 -21 5 -12 26 -16 107 -18 l102 -3 3 -62 c2 -47 7 -63 17 -63 10 0 15
11 15 34 0 18 3 47 6 64 6 29 7 30 64 26 54 -3 59 -1 62 19 2 18 10 23 46 25
42 3 42 3 42 43 0 32 -3 39 -20 39 -13 0 -20 -7 -20 -20 0 -17 -7 -20 -45 -20
-38 0 -45 -3 -45 -19 0 -23 -50 -29 -175 -21 -62 4 -80 8 -80 20 0 10 13 16
43 18 l42 3 0 45 c0 37 -3 44 -20 44 -13 0 -20 7 -20 20 0 17 -7 20 -45 20
-33 0 -45 4 -45 15 0 22 -28 18 -35 -4z"/>
<path d="M1330 1304 c0 -9 9 -18 19 -21 11 -3 21 -13 24 -24 7 -25 37 -25 37
1 0 13 -7 20 -20 20 -13 0 -20 7 -20 20 0 13 -7 20 -20 20 -12 0 -20 -7 -20
-16z"/>
<path d="M1420 1220 c0 -13 7 -20 20 -20 17 0 20 -7 20 -45 0 -38 3 -45 20
-45 17 0 20 -7 20 -40 0 -33 3 -40 20 -40 17 0 20 7 20 40 0 33 -3 40 -20 40
-17 0 -20 7 -20 39 0 30 -5 41 -19 46 -10 3 -21 15 -24 25 -7 26 -37 26 -37 0z"/>
<path d="M1550 985 c0 -33 4 -45 15 -45 11 0 15 11 15 39 0 25 -5 41 -15 45
-12 4 -15 -4 -15 -39z"/>
<path d="M528 883 l-3 -68 -82 -3 c-64 -2 -83 -6 -83 -17 0 -11 19 -15 83 -17
l82 -3 3 -42 c3 -35 7 -43 23 -43 12 0 19 -7 19 -20 0 -19 -7 -20 -105 -20
-98 0 -105 -1 -105 -20 0 -19 7 -20 105 -20 105 0 105 0 105 -25 0 -23 -2 -24
-82 -27 -70 -3 -83 -6 -86 -20 -3 -16 6 -18 82 -18 l86 0 0 -85 0 -85 -105 0
c-100 0 -105 -1 -105 -21 0 -18 4 -20 30 -14 16 4 54 3 85 0 45 -6 55 -11 55
-26 0 -12 7 -19 20 -19 13 0 20 7 20 20 0 13 7 20 20 20 19 0 20 7 20 190 0
182 -1 190 -20 190 -18 0 -20 8 -22 127 -3 111 -5 128 -20 131 -14 3 -18 -7
-20 -65z"/>
<path d="M1590 901 c0 -34 3 -41 20 -41 19 0 20 -7 20 -164 0 -155 -1 -164
-20 -169 -16 -4 -20 -14 -20 -47 0 -34 3 -41 18 -38 12 2 18 15 20 46 3 34 7
42 23 42 18 0 19 8 19 159 0 148 -1 159 -19 164 -14 3 -21 15 -23 43 -2 27 -8
40 -20 42 -15 3 -18 -4 -18 -37z"/>
<path d="M1376 743 c-3 -21 -6 -50 -6 -65 0 -21 -5 -28 -20 -28 -13 0 -20 -7
-20 -20 0 -13 -7 -20 -20 -20 -18 0 -20 -7 -20 -65 0 -58 -2 -65 -20 -65 -19
0 -20 -7 -20 -190 0 -162 2 -190 15 -190 10 0 15 10 15 29 0 50 9 61 51 61 32
0 39 3 39 20 0 16 -7 20 -35 20 l-35 0 0 119 c0 110 1 119 20 124 17 4 20 14
20 66 0 54 2 61 20 61 13 0 20 7 20 20 0 13 7 20 20 20 18 0 20 7 20 70 0 62
-2 70 -19 70 -14 0 -20 -10 -25 -37z"/>
<path d="M320 715 c0 -42 3 -55 15 -55 8 0 15 5 15 10 0 6 11 15 25 20 31 12
33 40 4 40 -12 0 -23 8 -26 20 -3 11 -12 20 -19 20 -10 0 -14 -15 -14 -55z"/>
<path d="M950 650 c0 -33 3 -40 20 -40 17 0 20 7 20 40 0 33 -3 40 -20 40 -17
0 -20 -7 -20 -40z"/>
<path d="M798 602 c-14 -3 -18 -13 -18 -43 0 -32 3 -39 20 -39 17 0 20 -7 20
-39 0 -30 -4 -40 -20 -44 -18 -5 -20 -14 -20 -106 0 -94 1 -101 20 -101 13 0
20 7 20 20 0 17 7 20 45 20 38 0 45 3 45 20 0 17 -7 20 -45 20 l-46 0 3 63 c3
56 5 62 26 65 18 3 22 -1 22 -22 0 -24 4 -26 40 -26 33 0 40 -3 40 -20 0 -17
7 -20 46 -20 l45 0 -3 -42 -3 -43 -60 0 c-47 0 -60 -3 -60 -15 0 -11 15 -16
63 -18 58 -3 62 -4 62 -27 0 -18 5 -25 20 -25 20 0 20 5 18 147 -3 129 -5 148
-20 151 -13 3 -17 -6 -20 -40 -3 -43 -3 -43 -45 -46 -40 -3 -43 -1 -43 22 0
24 -4 26 -39 26 -39 0 -40 1 -43 38 -2 29 -7 38 -25 40 -18 3 -22 11 -25 45
-2 34 -6 42 -20 39z"/>
<path d="M1013 602 c-6 -4 -12 -32 -14 -62 -4 -50 -2 -55 16 -55 17 0 20 8 23
54 3 55 -5 76 -25 63z"/>
<path d="M360 495 c0 -8 9 -15 20 -15 11 0 20 7 20 15 0 8 -9 15 -20 15 -11 0
-20 -7 -20 -15z"/>
<path d="M320 415 c0 -49 2 -55 21 -55 11 0 17 5 14 10 -3 6 5 14 19 20 31 12
35 40 5 40 -12 0 -23 8 -26 20 -3 11 -12 20 -19 20 -10 0 -14 -15 -14 -55z"/>
<path d="M1550 400 c0 -29 4 -40 15 -40 11 0 15 11 15 40 0 29 -4 40 -15 40
-11 0 -15 -11 -15 -40z"/>
<path d="M1507 353 c-4 -3 -7 -15 -7 -25 0 -11 -7 -18 -20 -18 -13 0 -20 -7
-20 -19 0 -16 -8 -20 -42 -23 -57 -4 -60 -32 -5 -36 32 -3 39 0 44 17 3 12 14
21 24 21 12 0 19 7 19 19 0 11 9 23 20 26 22 7 28 45 7 45 -8 0 -17 -3 -20 -7z"/>
<path d="M490 206 c0 -39 4 -55 15 -60 12 -4 15 5 15 54 0 47 -3 60 -15 60
-11 0 -15 -13 -15 -54z"/>
<path d="M740 180 c0 -37 16 -55 24 -27 17 53 16 67 -4 67 -17 0 -20 -7 -20
-40z"/>
<path d="M570 160 c0 -13 -7 -20 -20 -20 -13 0 -20 -7 -20 -20 0 -18 8 -19
100 -19 93 0 100 1 100 19 0 11 -6 20 -14 20 -7 0 -16 9 -19 20 -3 11 -13 20
-22 20 -9 0 -19 -9 -22 -20 -3 -11 -14 -20 -24 -20 -12 0 -19 7 -19 20 0 13
-7 20 -20 20 -13 0 -20 -7 -20 -20z"/>
<path d="M1000 115 c0 -48 2 -55 20 -55 13 0 20 -7 20 -20 0 -18 7 -20 80 -20
73 0 80 2 80 20 0 11 -6 20 -14 20 -7 0 -16 9 -19 19 -7 26 -41 20 -45 -7 -5
-30 -40 -29 -44 1 -2 14 -9 21 -21 21 -13 -1 -17 6 -17 37 0 32 -3 39 -20 39
-18 0 -20 -7 -20 -55z"/>
<path d="M1207 93 c-14 -13 -6 -33 13 -33 13 0 20 7 20 20 0 19 -20 27 -33 13z"/>
</g>
</svg>
